<svg xmlns="http://www.w3.org/2000/svg" viewBox="0 0 200 200">
<defs>
    <style>
        .cls-1{fill:#00151e;}
        .cls-2{fill:#72eeff;}
    </style>
</defs>
<g id="Layer_1" data-name="Layer 1">
    <g id="Layer_2" data-name="Layer 2">
        <circle class="cls-1" cx="100" cy="100" r="100"/>
        <path class="cls-2" d="M153.06,33.87a32.66,32.66,0,0,0-18.83,5.94,32.73,32.73,0,0,1,6,13.38,17,17,0,0,1,10.4-4c7.92,0,13.87,6.43,12.38,14.36l-9.9,72.32a17,17,0,0,1-16.35,14.37c-7.93,0-13.87-6.44-12.39-14.37l9.91-72.32c2.48-16.35-9.41-29.72-25.76-29.72S76.77,47.24,74.79,63.59l-9.91,72.32a17,17,0,0,1-16.35,14.37c-7.92,0-13.87-6.44-12.38-14.37l9.91-72.32A17,17,0,0,1,62.4,49.23a12.68,12.68,0,0,1,9.42,4,41,41,0,0,1,9.41-13.38,26,26,0,0,0-16.35-5.45c-16.35,0-31.7,13.38-33.68,29.73l-9.91,72.32c-2.48,16.35,9.41,29.72,25.76,29.72s31.7-13.37,33.68-29.72l9.91-72.32A17,17,0,0,1,107,49.72c7.92,0,13.87,6.44,12.38,14.37l-9.91,72.32c-2.47,16.35,9.42,29.72,25.76,29.72s31.71-13.37,33.69-29.72l9.9-72.32C180.8,47.24,169.4,33.87,153.06,33.87Z"/>
        <path class="cls-2" d="M103,146.32a17.06,17.06,0,0,1-10.4,4,13.23,13.23,0,0,1-8.92-3.47,41,41,0,0,1-9.41,13.38,26,26,0,0,0,16.35,5.45,35.28,35.28,0,0,0,18.82-5.95A28.15,28.15,0,0,1,103,146.32Z"/>
    </g>
</g>
</svg>