<?xml version="1.0" encoding="utf-8"?>
<!-- Generator: Adobe Illustrator 23.0.1, SVG Export Plug-In . SVG Version: 6.00 Build 0)  -->
<svg version="1.1" id="Layer_1" xmlns="http://www.w3.org/2000/svg" xmlns:xlink="http://www.w3.org/1999/xlink" x="0px" y="0px"
	 viewBox="0 0 32 32" style="enable-background:new 0 0 32 32;" xml:space="preserve">
<style type="text/css">
	.st0{fill:url(#SVGID_1_);}
	.st1{fill:url(#SVGID_2_);}
	.st2{opacity:0.6;fill:url(#SVGID_3_);enable-background:new    ;}
	.st3{fill:url(#SVGID_4_);}
</style>
<g>
	<linearGradient id="SVGID_1_" gradientUnits="userSpaceOnUse" x1="7.4403" y1="2.3073" x2="6.7073" y2="11.5616">
		<stop  offset="0" style="stop-color:#4F1580"/>
		<stop  offset="0.4843" style="stop-color:#C407D2"/>
		<stop  offset="0.7504" style="stop-color:#FF00FF"/>
	</linearGradient>
	<path class="st0" d="M9,2.7c1.3,0,2.4,0.4,3.3,1.1c-0.8,0.8-1.5,1.7-1.9,2.7C9.9,6,9.3,5.8,8.5,5.8c-1.6,0-3.1,1.3-3.3,2.9L4.9,11
		H1.8l0.3-2.3C2.6,5.4,5.6,2.7,9,2.7z"/>
	<linearGradient id="SVGID_2_" gradientUnits="userSpaceOnUse" x1="27.9475" y1="2.7451" x2="26.6342" y2="14.2596">
		<stop  offset="0" style="stop-color:#1A5B8A"/>
		<stop  offset="5.700000e-02" style="stop-color:#1B6694"/>
		<stop  offset="0.1581" style="stop-color:#1F85AE"/>
		<stop  offset="0.2908" style="stop-color:#25B5D7"/>
		<stop  offset="0.3302" style="stop-color:#27C5E5"/>
		<stop  offset="0.5428" style="stop-color:#2AD8F7"/>
		<stop  offset="0.6173" style="stop-color:#2BDFFE"/>
		<stop  offset="1" style="stop-color:#2BE0FF"/>
	</linearGradient>
	<path class="st1" d="M32,8.7L31.7,11h-3.1l0.3-2.3c0.2-1.6-0.9-2.9-2.5-2.9c-0.8,0-1.6,0.3-2.1,0.8c-0.2-1-0.6-1.9-1.2-2.7
		c1.1-0.8,2.4-1.2,3.8-1.2C30.1,2.7,32.5,5.4,32,8.7z"/>
	<linearGradient id="SVGID_3_" gradientUnits="userSpaceOnUse" x1="10.9113" y1="27.3897" x2="17.982" y2="27.3897">
		<stop  offset="2.077838e-07" style="stop-color:#FF00FF"/>
		<stop  offset="0.2121" style="stop-color:#C043FF"/>
		<stop  offset="0.4136" style="stop-color:#8B7BFF"/>
		<stop  offset="0.5987" style="stop-color:#61A7FF"/>
		<stop  offset="0.764" style="stop-color:#44C6FF"/>
		<stop  offset="0.9033" style="stop-color:#31D9FF"/>
		<stop  offset="1" style="stop-color:#2BE0FF"/>
	</linearGradient>
	<path class="st2" d="M16.8,25.4c-0.6,0.5-1.4,0.8-2.1,0.8c-0.7,0-1.4-0.3-1.8-0.7c-0.4,1-1.1,1.9-1.9,2.7c0.9,0.7,2,1.1,3.3,1.1
		c1.4,0,2.7-0.5,3.8-1.2C17.4,27.3,17,26.4,16.8,25.4z"/>
	<linearGradient id="SVGID_4_" gradientUnits="userSpaceOnUse" x1="6.384632e-02" y1="16.01" x2="31.6899" y2="16.01">
		<stop  offset="3.724828e-03" style="stop-color:#FF00FF"/>
		<stop  offset="0.1639" style="stop-color:#FF00FF"/>
		<stop  offset="0.2791" style="stop-color:#D032FF"/>
		<stop  offset="0.463" style="stop-color:#8A7CFF"/>
		<stop  offset="0.6158" style="stop-color:#57B2FF"/>
		<stop  offset="0.7295" style="stop-color:#37D3FF"/>
		<stop  offset="0.7914" style="stop-color:#2BE0FF"/>
		<stop  offset="1" style="stop-color:#2BE0FF"/>
	</linearGradient>
	<path class="st3" d="M31.7,11L30,23.3c-0.5,3.3-3.5,6-6.8,6c-3.3,0-5.6-2.7-5.2-6l2-14.6c0.2-1.6-0.9-2.9-2.5-2.9
		c-1.6,0-3.1,1.3-3.3,2.9l-2,14.6c-0.5,3.3-3.5,6-6.8,6c-3.3,0-5.6-2.7-5.2-6L1.8,11h3.1L3.2,23.3C3,25,4.1,26.3,5.7,26.3
		c1.6,0,3.1-1.3,3.3-2.9l2-14.6c0.5-3.3,3.5-6,6.8-6s5.6,2.7,5.2,6l-2,14.6c-0.2,1.6,0.9,2.9,2.5,2.9c1.6,0,3.1-1.3,3.3-2.9L28.6,11
		H31.7z"/>
</g>
</svg>
