<?xml version="1.0" encoding="utf-8"?>
<!-- Generator: Adobe Illustrator 23.0.1, SVG Export Plug-In . SVG Version: 6.00 Build 0)  -->
<svg version="1.1" id="Layer_1" xmlns="http://www.w3.org/2000/svg" xmlns:xlink="http://www.w3.org/1999/xlink" x="0px" y="0px" viewBox="0 0 32 32" style="enable-background:new 0 0 32 32;" xml:space="preserve">
<style type="text/css">
	.st0{
		fill: #f5f3ff;
	}
</style>
<g>
	<path class="st0" d="M26.8,2.7c-1.3,0-2.7,0.4-3.8,1.2c0.6,0.8,1,1.7,1.2,2.7c0.6-0.5,1.4-0.8,2.1-0.8c1.6,0,2.8,1.3,2.5,2.9
		l-2,14.6c-0.2,1.6-1.7,2.9-3.3,2.9c-1.6,0-2.8-1.3-2.5-2.9l2-14.6c0.5-3.3-1.9-6-5.2-6c-3.3,0-6.4,2.7-6.8,6L9,23.3
		c-0.2,1.6-1.7,2.9-3.3,2.9c-1.6,0-2.8-1.3-2.5-2.9l2-14.6c0.2-1.6,1.7-2.9,3.3-2.9c0.8,0,1.4,0.3,1.9,0.8c0.4-1,1.1-1.9,1.9-2.7
		c-0.9-0.7-2-1.1-3.3-1.1c-3.3,0-6.4,2.7-6.8,6l-2,14.6c-0.5,3.3,1.9,6,5.2,6c3.3,0,6.4-2.7,6.8-6l2-14.6c0.2-1.6,1.7-2.9,3.3-2.9
		c1.6,0,2.8,1.3,2.5,2.9l-2,14.6c-0.5,3.3,1.9,6,5.2,6c3.3,0,6.4-2.7,6.8-6l2-14.6C32.4,5.4,30.1,2.7,26.8,2.7z"/>
	<path class="st0" d="M16.7,25.4c-0.6,0.5-1.4,0.8-2.1,0.8c-0.7,0-1.4-0.3-1.8-0.7c-0.4,1-1.1,1.9-1.9,2.7c0.9,0.7,2,1.1,3.3,1.1
		c1.4,0,2.7-0.5,3.8-1.2C17.3,27.3,16.9,26.4,16.7,25.4z"/>
</g>
</svg>
