<?xml version="1.0" encoding="utf-8"?>
<!-- Generator: Adobe Illustrator 23.0.1, SVG Export Plug-In . SVG Version: 6.00 Build 0)  -->
<svg version="1.1" id="Layer_1" xmlns="http://www.w3.org/2000/svg" xmlns:xlink="http://www.w3.org/1999/xlink" x="0px" y="0px"
	 viewBox="0 0 102 52" style="enable-background:new 0 0 102 52;" xml:space="preserve">
<style type="text/css">
	.st0{
		fill: #f5f3ff;
	}
</style>
<g>
	<g>
		<path class="st0" d="M6.76,9.05c0.82,0.09,0.82,0.3,1.13,0.64s0.46,0.89,0.46,1.65c0,0.29-0.03,0.64-0.09,1.05
			c-0.03,0.5-0.15,1.4-0.35,2.72l-1.09,7.86c-0.06,0.47-0.09,0.78-0.09,0.92c0,0.18,0.03,0.31,0.09,0.39
			c0.06,0.12,0.18,0.19,0.35,0.22c0.14,0.03,1.89,0.04,2.51,0.04l1.14-8.39l1.05-7.2c1.89,0,2.58,0.04,3.17,0.13
			c0.87,0.12,1.44,0.42,1.7,0.92c0.18,0.35,0.26,0.83,0.26,1.45c0,0.2-0.01,0.42-0.04,0.66c-0.03,0.53-0.13,1.52-0.31,2.99
			l-1.09,7.82c-0.06,0.41-0.09,0.69-0.09,0.83c-0.03,0.24-0.01,0.39,0.04,0.48c0.06,0.15,0.19,0.24,0.39,0.26
			c0.18,0.03,2.22,0.04,2.8,0.04l1.27-8.87l0.92-6.72c1.95,0,2.8,0.04,3.38,0.13c0.82,0.12,1.35,0.37,1.62,0.75
			c0.23,0.32,0.35,0.82,0.35,1.49v0.26c-0.03,0.56-0.16,1.74-0.39,3.56l-1.31,9.4c-0.23,1.73-0.42,2.87-0.57,3.43
			c-0.18,0.76-0.39,1.33-0.65,1.71c-0.41,0.5-1.08,0.81-2.01,0.92c-0.61,0.09-1.89,0.13-3.85,0.13h-2.99H7.69h-1.7
			c-2.04,0-3.62-0.06-4.2-0.18c-0.82-0.12-1.34-0.41-1.57-0.88C0.07,29.36,0,28.91,0,28.32c0-0.06,0-0.13,0-0.22
			c0.03-0.59,0.16-1.77,0.39-3.56l1.31-9.44l0.87-6.15C4.41,8.96,6.18,8.99,6.76,9.05z"/>
		<path class="st0" d="M46.29,8.96c1.57,0,2.62,0.01,3.15,0.04c0.93,0.09,1.59,0.26,1.97,0.53c0.41,0.32,0.61,0.92,0.61,1.8
			c0,0.26-0.01,0.59-0.04,0.97c-0.06,0.5-0.18,1.43-0.35,2.81l-0.26,1.67c-0.23,1.76-0.23,2.26-0.37,2.81
			c-0.2,0.85-0.48,1.46-0.83,1.84c-0.41,0.38-1.03,0.62-1.88,0.7c-0.58,0.09-1.63,0.13-3.15,0.13c-0.15,0-0.35,0-0.61,0h-8.56
			c-0.32,0-0.54,0.01-0.65,0.04c-0.15,0.03-0.26,0.07-0.35,0.13c-0.09,0.12-0.15,0.29-0.18,0.53c-0.03,0.15-0.27,1.11-0.32,1.58
			h1.09h8.52c1.69,0,2.78,0.04,3.28,0.13c0.67,0.09,1.15,0.31,1.44,0.66c0.32,0.35,0.51,1,0.57,1.93c0.06,0.53,0.09,1.43,0.09,2.72
			c0,0.15,0,0.38,0,0.7H33.57c-0.29,0-0.51,0-0.65,0c-1.75,0-2.91-0.06-3.5-0.18c-0.64-0.15-1.08-0.42-1.31-0.83
			c-0.18-0.29-0.26-0.75-0.26-1.36c0-0.12,0-0.22,0-0.31c0.03-0.59,0.16-1.76,0.39-3.51l1.31-9.4c0.23-1.55,0.41-2.59,0.52-3.12
			c0.2-1.05,0.51-1.77,0.92-2.15c0.41-0.38,1.02-0.63,1.84-0.75c0.61-0.09,1.92-0.13,3.93-0.13L46.29,8.96L46.29,8.96z M36.1,15.19
			c-0.12,0.03-0.2,0.09-0.26,0.18c-0.06,0.09-0.12,0.22-0.18,0.39c-0.03,0.15-0.22,1.24-0.28,1.73h1.09H44c0.2,0,0.35,0,0.44,0
			c0.26-0.03,0.44-0.1,0.52-0.22c0.06-0.06,0.1-0.18,0.13-0.35c0.03-0.18,0.22-1.28,0.28-1.78h-1.01h-7.52
			C36.44,15.15,36.19,15.16,36.1,15.19z"/>
		<path class="st0" d="M71.33,8.96c1.57,0,2.62,0.01,3.15,0.04c0.93,0.09,1.59,0.26,1.97,0.53c0.41,0.32,0.61,0.92,0.61,1.8
			c0,0.26-0.01,0.59-0.04,0.97c-0.06,0.5-0.18,1.43-0.35,2.81l-0.26,1.67c-0.23,1.76-0.23,2.26-0.37,2.81
			c-0.2,0.85-0.48,1.46-0.83,1.84c-0.41,0.38-1.03,0.62-1.88,0.7c-0.58,0.09-1.63,0.13-3.15,0.13c-0.15,0-0.35,0-0.61,0H61
			c-0.32,0-0.54,0.01-0.66,0.04c-0.15,0.03-0.26,0.07-0.35,0.13c-0.09,0.12-0.15,0.29-0.18,0.53c-0.03,0.15-0.27,1.11-0.32,1.58
			h1.09h8.52c1.69,0,2.78,0.04,3.28,0.13c0.67,0.09,1.15,0.31,1.44,0.66c0.32,0.35,0.51,1,0.57,1.93c0.06,0.53,0.09,1.43,0.09,2.72
			c0,0.15,0,0.38,0,0.7H58.62c-0.29,0-0.51,0-0.66,0c-1.75,0-2.91-0.06-3.5-0.18c-0.64-0.15-1.08-0.42-1.31-0.83
			c-0.18-0.29-0.26-0.75-0.26-1.36c0-0.12,0-0.22,0-0.31c0.03-0.59,0.16-1.76,0.39-3.51l1.31-9.4c0.23-1.55,0.41-2.59,0.52-3.12
			c0.2-1.05,0.51-1.77,0.92-2.15c0.41-0.38,1.02-0.63,1.84-0.75C58.49,9,59.8,8.96,61.81,8.96L71.33,8.96L71.33,8.96z M61.15,15.19
			c-0.12,0.03-0.2,0.09-0.26,0.18c-0.06,0.09-0.12,0.22-0.18,0.39c-0.03,0.15-0.22,1.24-0.28,1.73h1.09h7.52c0.2,0,0.35,0,0.44,0
			c0.26-0.03,0.44-0.1,0.52-0.22c0.06-0.06,0.1-0.18,0.13-0.35c0.03-0.18,0.22-1.28,0.28-1.78h-1.01H61.9
			C61.49,15.15,61.24,15.16,61.15,15.19z"/>
		<path class="st0" d="M86.14,0.39c0.58,0.26,0.95,0.76,1.09,1.49c0.03,0.29,0.04,0.64,0.04,1.05c0,0.26,0,0.57,0,0.92
			C87.21,4.71,87,6.41,86.62,8.96h9.61c0.29,0,0.5,0,0.61,0c1.81,0,3,0.07,3.58,0.22c0.7,0.15,1.16,0.47,1.4,0.97
			c0.12,0.29,0.18,0.7,0.18,1.23c0,0.09,0,0.19,0,0.31c-0.03,0.59-0.16,1.74-0.39,3.47l-1.31,9.4c-0.26,1.79-0.47,2.97-0.61,3.56
			c-0.2,0.85-0.49,1.45-0.85,1.8c-0.37,0.35-0.95,0.59-1.77,0.7c-0.61,0.09-1.89,0.13-3.85,0.13H83.6c-2.13,0-3.5-0.06-4.11-0.18
			c-0.64-0.12-1.09-0.37-1.35-0.75c-0.2-0.32-0.31-0.81-0.31-1.45c0-0.29,0.01-0.63,0.04-1.01c0.06-0.5,0.18-1.43,0.35-2.81
			l1.31-9.4l0.87-6.19L81.68,0C84.07,0,85.55,0.13,86.14,0.39z M84.69,22.92c-0.09,0.53-0.13,0.86-0.13,1.01
			c0,0.18,0.03,0.31,0.09,0.39c0.09,0.09,0.22,0.15,0.39,0.18c0.14,0.03,0.47,0.04,0.96,0.04h8.08l1.09-7.82
			c0.06-0.5,0.09-0.82,0.09-0.97c0-0.15-0.01-0.25-0.04-0.31c-0.06-0.15-0.18-0.23-0.35-0.26c-0.15-0.03-0.42-0.04-0.83-0.04h-0.13
			h-8.17L84.69,22.92z"/>
	</g>
	<g>
		<path class="st0" d="M33.37,38.25h2.84c-0.13,0.89-0.24,1.47-0.32,1.73c-0.08,0.26-0.18,0.46-0.3,0.59
			c-0.16,0.18-0.41,0.31-0.76,0.37c-0.28,0.04-0.9,0.06-1.86,0.06H29.4c-0.23,0-0.38,0.01-0.46,0.02c-0.09,0-0.17,0.01-0.22,0.04
			c-0.08,0.04-0.13,0.11-0.16,0.22c-0.03,0.08-0.05,0.23-0.08,0.45l-0.5,3.48h4.39h2.84c-0.11,0.77-0.19,1.28-0.24,1.53
			c-0.09,0.41-0.23,0.69-0.4,0.86c-0.17,0.16-0.44,0.26-0.8,0.31c-0.28,0.04-0.86,0.06-1.76,0.06c-0.01,0-0.03,0-0.04,0h-4.39
			l-0.18,1.24c-0.11,0.75-0.19,1.25-0.24,1.51c-0.08,0.31-0.17,0.56-0.28,0.73c-0.16,0.24-0.41,0.39-0.76,0.45
			c-0.29,0.07-0.94,0.1-1.96,0.1l0.76-5.36L25.74,41c0.11-0.82,0.19-1.38,0.26-1.65c0.12-0.41,0.29-0.68,0.52-0.82
			c0.17-0.13,0.44-0.21,0.8-0.24c0.27-0.03,0.73-0.04,1.38-0.04c0.05,0,0.14,0,0.26,0L33.37,38.25L33.37,38.25z"/>
		<path class="st0" d="M42.15,39.31c0.11-0.37,0.27-0.62,0.48-0.77c0.16-0.12,0.4-0.2,0.72-0.24c0.24-0.03,0.62-0.04,1.14-0.04
			c0.12,0,0.33,0,0.62,0h0.74h2.84h0.82c0.28,0,0.48,0,0.6,0c0.53,0,0.92,0.01,1.16,0.04c0.25,0.04,0.45,0.11,0.58,0.22
			c0.16,0.13,0.25,0.36,0.28,0.69c0,0.04,0,0.08,0,0.14c0,0.26-0.06,0.83-0.18,1.69l-0.1,0.71l-0.4,2.77l-0.1,0.73
			c-0.11,0.8-0.19,1.32-0.26,1.57c-0.08,0.33-0.19,0.57-0.34,0.73c-0.16,0.18-0.41,0.31-0.74,0.37c-0.29,0.05-0.93,0.08-1.9,0.08
			l0.4-2.75l0.1-0.73l0.4-2.77l0.1-0.71h-3.65c-0.23-0.01-0.37-0.01-0.44,0c-0.08,0-0.15,0.02-0.2,0.06
			c-0.05,0.04-0.1,0.12-0.14,0.24c-0.01,0.07-0.03,0.2-0.06,0.41l-0.4,2.77l-0.1,0.73c-0.13,0.88-0.24,1.45-0.32,1.71
			c-0.09,0.34-0.24,0.58-0.44,0.73c-0.17,0.13-0.44,0.22-0.8,0.27c-0.27,0.03-0.83,0.04-1.68,0.04l0.4-2.75l0.1-0.73l0.4-2.77
			l0.1-0.71C42,40.15,42.09,39.57,42.15,39.31z"/>
		<path class="st0" d="M62.64,38.31c0.27,0.04,0.47,0.11,0.6,0.2c0.2,0.14,0.3,0.42,0.3,0.83c0,0.08-0.01,0.17-0.02,0.27
			c-0.01,0.25-0.07,0.72-0.16,1.41l-0.32,2.2l-0.28,2c-0.13,0.94-0.25,1.55-0.34,1.81c-0.09,0.29-0.23,0.5-0.4,0.63
			c-0.16,0.12-0.38,0.2-0.66,0.26c-0.28,0.05-0.92,0.08-1.92,0.08h-4.33c-0.97,0-1.59-0.03-1.86-0.08c-0.28-0.05-0.48-0.15-0.59-0.3
			c-0.11-0.14-0.17-0.37-0.17-0.69c0-0.04,0-0.08,0-0.12c0.01-0.26,0.07-0.79,0.18-1.59l0.07-0.51c0.09-0.71,0.17-1.18,0.22-1.41
			c0.09-0.46,0.23-0.77,0.4-0.94c0.17-0.17,0.43-0.28,0.78-0.33c0.28-0.04,0.79-0.06,1.54-0.06c0.07,0,0.16,0,0.28,0h3.89
			c0.16,0,0.27-0.01,0.32-0.02c0.08-0.01,0.14-0.05,0.18-0.1c0.03-0.04,0.05-0.1,0.06-0.17c0.01-0.07,0.08-0.44,0.11-0.66h-0.5
			h-3.89c-0.73,0-1.22-0.01-1.46-0.04c-0.36-0.05-0.61-0.17-0.74-0.35c-0.12-0.17-0.2-0.47-0.24-0.9c-0.01-0.24-0.02-0.62-0.02-1.14
			c0-0.08,0-0.19,0-0.33h7.23c0.16,0,0.27,0,0.32,0c0.07,0,0.13,0,0.18,0C61.97,38.25,62.39,38.27,62.64,38.31z M55.8,44.43
			c-0.07,0.01-0.11,0.04-0.14,0.08c-0.04,0.05-0.07,0.15-0.08,0.3c-0.01,0.07-0.08,0.42-0.1,0.57h0.48h3.43
			c0.16,0,0.27-0.01,0.32-0.02c0.07-0.01,0.11-0.04,0.14-0.08c0.03-0.04,0.05-0.1,0.08-0.2c0.01-0.07,0.08-0.45,0.1-0.67h-0.5H56.1
			C55.94,44.41,55.84,44.42,55.8,44.43z"/>
		<path class="st0" d="M65.2,39.31c0.11-0.37,0.27-0.62,0.48-0.77c0.16-0.12,0.4-0.2,0.72-0.24c0.24-0.03,0.62-0.04,1.14-0.04
			c0.12,0,0.33,0,0.62,0h0.74h2.84h0.82c0.28,0,0.48,0,0.6,0c0.53,0,0.92,0.01,1.16,0.04c0.25,0.04,0.45,0.11,0.58,0.22
			c0.16,0.13,0.25,0.36,0.28,0.69c0,0.04,0,0.08,0,0.14c0,0.26-0.06,0.83-0.18,1.69l-0.1,0.71l-0.4,2.77l-0.1,0.73
			c-0.11,0.8-0.19,1.32-0.26,1.57c-0.08,0.33-0.19,0.57-0.34,0.73c-0.16,0.18-0.41,0.31-0.74,0.37c-0.29,0.05-0.93,0.08-1.9,0.08
			l0.4-2.75l0.1-0.73l0.4-2.77l0.1-0.71h-3.65c-0.23-0.01-0.37-0.01-0.44,0c-0.08,0-0.15,0.02-0.2,0.06
			c-0.05,0.04-0.1,0.12-0.14,0.24c-0.01,0.07-0.03,0.2-0.06,0.41l-0.4,2.77l-0.1,0.73c-0.13,0.88-0.24,1.45-0.32,1.71
			c-0.09,0.34-0.24,0.58-0.44,0.73c-0.17,0.13-0.44,0.22-0.8,0.27c-0.27,0.03-0.83,0.04-1.68,0.04l0.4-2.75l0.1-0.73l0.4-2.77
			l0.1-0.71C65.04,40.15,65.13,39.57,65.2,39.31z"/>
		<path class="st0" d="M83.96,38.27h2.84c-0.12,0.8-0.21,1.33-0.28,1.59c-0.09,0.38-0.23,0.65-0.4,0.81
			c-0.21,0.18-0.56,0.3-1.04,0.33c-0.27,0.01-0.77,0.02-1.52,0.02h-3.57c-0.29,0-0.48,0.01-0.56,0.04
			c-0.08,0.01-0.14,0.03-0.18,0.06c-0.05,0.05-0.09,0.13-0.12,0.24c-0.01,0.07-0.03,0.2-0.06,0.39l-0.5,3.48h4.39h2.84
			c-0.12,0.85-0.21,1.41-0.28,1.67c-0.09,0.37-0.23,0.63-0.42,0.79c-0.19,0.14-0.48,0.24-0.88,0.27c-0.27,0.03-0.81,0.04-1.62,0.04
			c-0.01,0-0.03,0-0.04,0h-4.39c-0.01,0-0.03,0-0.04,0c-0.97,0-1.59-0.03-1.86-0.08c-0.29-0.07-0.49-0.18-0.6-0.35
			c-0.09-0.13-0.14-0.34-0.14-0.63c0-0.04,0-0.08,0-0.14c0.01-0.26,0.08-0.79,0.2-1.57c0.07-0.55,0.18-1.35,0.33-2.39
			c0.15-1.04,0.24-1.65,0.27-1.82c0.11-0.77,0.19-1.28,0.24-1.53c0.09-0.41,0.23-0.69,0.42-0.86c0.17-0.16,0.44-0.26,0.8-0.31
			c0.28-0.03,0.78-0.04,1.5-0.04c0.05,0,0.14,0,0.26,0L83.96,38.27L83.96,38.27z"/>
		<path class="st0" d="M95.35,38.25c0.71,0,1.17,0.01,1.41,0.02c0.42,0.04,0.71,0.12,0.88,0.24c0.18,0.14,0.27,0.41,0.27,0.81
			c0,0.12-0.01,0.26-0.02,0.43c-0.03,0.22-0.08,0.64-0.16,1.26l-0.12,0.75c-0.1,0.79-0.1,1.01-0.17,1.26
			c-0.09,0.38-0.22,0.66-0.37,0.83c-0.18,0.17-0.46,0.28-0.84,0.31c-0.26,0.04-0.73,0.06-1.41,0.06c-0.07,0-0.16,0-0.27,0h-3.84
			c-0.14,0-0.24,0.01-0.29,0.02c-0.07,0.01-0.12,0.03-0.16,0.06c-0.04,0.05-0.07,0.13-0.08,0.24c-0.01,0.07-0.12,0.5-0.15,0.71h0.49
			h3.82c0.76,0,1.25,0.02,1.47,0.06c0.3,0.04,0.52,0.14,0.65,0.3c0.14,0.16,0.23,0.45,0.25,0.87c0.03,0.24,0.04,0.64,0.04,1.22
			c0,0.07,0,0.17,0,0.31h-7.11c-0.13,0-0.23,0-0.29,0c-0.78,0-1.31-0.03-1.57-0.08c-0.29-0.07-0.48-0.19-0.59-0.37
			c-0.08-0.13-0.12-0.33-0.12-0.61c0-0.05,0-0.1,0-0.14c0.01-0.26,0.07-0.79,0.18-1.57L87.84,41c0.1-0.7,0.18-1.16,0.23-1.4
			c0.09-0.47,0.23-0.79,0.41-0.96c0.18-0.17,0.46-0.28,0.82-0.33c0.27-0.04,0.86-0.06,1.76-0.06L95.35,38.25L95.35,38.25z
			 M90.78,41.04c-0.05,0.01-0.09,0.04-0.12,0.08c-0.03,0.04-0.05,0.1-0.08,0.18c-0.01,0.07-0.1,0.55-0.12,0.78h0.49h3.37
			c0.09,0,0.16,0,0.2,0c0.12-0.01,0.2-0.05,0.23-0.1c0.03-0.03,0.05-0.08,0.06-0.16c0.01-0.08,0.1-0.57,0.12-0.8h-0.45h-3.37
			C90.93,41.03,90.82,41.03,90.78,41.04z"/>
	</g>
	<path class="st0" d="M40.53,38.37l-0.58,3.98l-0.42,3.03c-0.11,0.68-0.19,1.15-0.24,1.4c-0.07,0.36-0.16,0.62-0.28,0.79
		c-0.16,0.25-0.43,0.41-0.8,0.47c-0.29,0.07-0.93,0.1-1.92,0.1l0.72-5l0.68-4.77L40.53,38.37L40.53,38.37z M40.63,37.64h-2.84
		l0.06-0.53c0.11-0.75,0.19-1.25,0.26-1.5c0.09-0.42,0.23-0.72,0.4-0.89c0.16-0.16,0.41-0.26,0.74-0.32
		c0.28-0.04,0.89-0.06,1.84-0.06L40.63,37.64z"/>
</g>
</svg>
